<svg width="40" height="40" viewBox="0 0 40 40" fill="none" xmlns="http://www.w3.org/2000/svg">
<g filter="url(#filter0_d_29543_944)">
<rect width="32" height="32" transform="translate(4)" fill="#81B3D3"/>
<path d="M14.7231 19.7434C14.7457 19.7656 14.7571 19.7875 14.7571 19.8096C14.78 19.8096 14.8025 19.8204 14.8251 19.8426C15.4378 20.5021 16.1302 21.1178 16.9018 21.6896C17.6734 22.2392 18.5587 22.536 19.5572 22.58C19.5801 22.58 19.6026 22.5914 19.6252 22.6132H19.7275C19.7501 22.6132 19.773 22.624 19.7955 22.6462H20.1699C20.2836 22.624 20.3856 22.6022 20.4765 22.58C20.8403 22.5138 21.1873 22.3794 21.4979 22.1844C21.8379 21.9864 22.0991 21.7444 22.2806 21.4587L22.3489 21.3266L22.4169 21.1948C22.4623 21.0409 22.4963 20.898 22.5192 20.7659C22.5418 20.6341 22.5532 20.5132 22.5532 20.4032C22.5532 19.8096 22.2806 19.3149 21.7362 18.9189C21.2286 18.5092 20.653 18.1857 20.0339 17.9623C19.801 17.8791 19.562 17.813 19.3189 17.7646C19.1054 17.7021 18.8897 17.647 18.6722 17.5996H18.6042C18.5813 17.5778 18.5587 17.5667 18.5361 17.5667C17.4323 17.3061 16.376 16.8834 15.4041 16.3133C14.4279 15.7197 13.7586 14.873 13.3954 13.7735C13.3243 13.5435 13.2562 13.3125 13.1911 13.0808C13.1445 12.8298 13.1104 12.5767 13.0891 12.3224C13.0682 12.247 13.0567 12.1694 13.0551 12.0912V11.2997C13.0776 11.1239 13.1116 10.948 13.1571 10.772C13.2276 10.3228 13.3415 9.8811 13.4974 9.45266C13.6563 9.01299 13.8606 8.61706 14.1101 8.26543C14.8365 7.0998 15.767 6.26419 16.9018 5.75863C18.0595 5.25278 19.2623 5 20.5105 5C20.8057 5 21.1006 5.02187 21.3958 5.06589C21.7146 5.08796 22.0325 5.12093 22.3489 5.16473C23.1768 5.29965 23.9871 5.52087 24.7659 5.82452C25.583 6.13241 26.332 6.49511 27.013 6.91291L25.1406 10.9699C24.5295 10.5313 23.8802 10.145 23.1999 9.81564C22.5192 9.48561 21.7816 9.32087 20.9872 9.32087H20.7146C20.1927 9.38676 19.7049 9.61768 19.2508 10.0133C18.797 10.3871 18.5701 10.7941 18.5701 11.2338V11.4317C18.5927 11.4976 18.6267 11.5635 18.6722 11.6297C18.7176 11.7837 18.797 11.9265 18.9105 12.0586C19.0239 12.1904 19.1488 12.3114 19.2849 12.4213C19.5346 12.6193 19.8975 12.8061 20.3745 12.982C20.8509 13.1359 21.3504 13.2898 21.8725 13.4438C22.3034 13.5537 22.7232 13.6636 23.1319 13.7735C23.5406 13.8616 23.8809 13.9496 24.1532 14.0377C25.4241 14.4773 26.3774 15.2138 27.013 16.2474C27.6482 17.2588 27.9774 18.3364 28 19.4796V19.6446C28 19.7767 27.9889 19.9088 27.966 20.0405V20.4032C27.83 21.5467 27.4442 22.6351 26.8086 23.6687C26.1959 24.7022 25.3675 25.4938 24.3236 26.0437C23.9361 26.2202 23.5382 26.3743 23.1319 26.5052C22.7262 26.6146 22.3176 26.7136 21.9065 26.8023C21.5694 26.8678 21.2282 26.9118 20.8852 26.9341C20.5579 26.9772 20.2281 26.9992 19.8978 27H19.5232C18.1615 26.9563 16.8227 26.6702 15.5061 26.1422C14.1899 25.5927 13.0211 24.867 12 23.9655L14.7231 19.7434Z" fill="white"/>
</g>
<defs>
<filter id="filter0_d_29543_944" x="0" y="0" width="40" height="40" filterUnits="userSpaceOnUse" color-interpolation-filters="sRGB">
<feFlood flood-opacity="0" result="BackgroundImageFix"/>
<feColorMatrix in="SourceAlpha" type="matrix" values="0 0 0 0 0 0 0 0 0 0 0 0 0 0 0 0 0 0 127 0" result="hardAlpha"/>
<feOffset dy="4"/>
<feGaussianBlur stdDeviation="2"/>
<feComposite in2="hardAlpha" operator="out"/>
<feColorMatrix type="matrix" values="0 0 0 0 0 0 0 0 0 0 0 0 0 0 0 0 0 0 0.25 0"/>
<feBlend mode="normal" in2="BackgroundImageFix" result="effect1_dropShadow_29543_944"/>
<feBlend mode="normal" in="SourceGraphic" in2="effect1_dropShadow_29543_944" result="shape"/>
</filter>
</defs>
</svg>
